<svg width="34" height="18" viewBox="0 0 34 18" fill="none" xmlns="http://www.w3.org/2000/svg">
<path d="M3.50004 8.99999C3.50004 6.14999 5.81671 3.83332 8.66671 3.83332H15.3334V0.666656H8.66671C4.06671 0.666656 0.333374 4.39999 0.333374 8.99999C0.333374 13.6 4.06671 17.3333 8.66671 17.3333H15.3334V14.1667H8.66671C5.81671 14.1667 3.50004 11.85 3.50004 8.99999ZM10.3334 10.6667H23.6667V7.33332H10.3334V10.6667ZM25.3334 0.666656H18.6667V3.83332H25.3334C28.1834 3.83332 30.5 6.14999 30.5 8.99999C30.5 11.85 28.1834 14.1667 25.3334 14.1667H18.6667V17.3333H25.3334C29.9334 17.3333 33.6667 13.6 33.6667 8.99999C33.6667 4.39999 29.9334 0.666656 25.3334 0.666656Z" fill="#61A7A3"/>
</svg>
