<svg width="19" height="19" viewBox="0 0 19 19" fill="none" xmlns="http://www.w3.org/2000/svg">
<path d="M1.1263 1.12642C1.24571 1.00672 1.38756 0.91174 1.54372 0.846937C1.69989 0.782135 1.86731 0.748779 2.03639 0.748779C2.20547 0.748779 2.37289 0.782135 2.52905 0.846937C2.68522 0.91174 2.82707 1.00672 2.94648 1.12642L9.74899 7.93151L16.5515 1.12642C16.671 1.00691 16.8129 0.912105 16.9691 0.847424C17.1252 0.782743 17.2926 0.749452 17.4616 0.749452C17.6306 0.749452 17.798 0.782743 17.9541 0.847424C18.1103 0.912105 18.2522 1.00691 18.3717 1.12642C18.4912 1.24594 18.586 1.38782 18.6507 1.54397C18.7154 1.70013 18.7487 1.86749 18.7487 2.03651C18.7487 2.20553 18.7154 2.37289 18.6507 2.52905C18.586 2.6852 18.4912 2.82708 18.3717 2.9466L11.5666 9.74912L18.3717 16.5516C18.4912 16.6711 18.586 16.813 18.6507 16.9692C18.7154 17.1253 18.7487 17.2927 18.7487 17.4617C18.7487 17.6307 18.7154 17.7981 18.6507 17.9543C18.586 18.1104 18.4912 18.2523 18.3717 18.3718C18.2522 18.4913 18.1103 18.5861 17.9541 18.6508C17.798 18.7155 17.6306 18.7488 17.4616 18.7488C17.2926 18.7488 17.1252 18.7155 16.9691 18.6508C16.8129 18.5861 16.671 18.4913 16.5515 18.3718L9.74899 11.5667L2.94648 18.3718C2.82696 18.4913 2.68508 18.5861 2.52893 18.6508C2.37277 18.7155 2.20541 18.7488 2.03639 18.7488C1.86737 18.7488 1.70001 18.7155 1.54385 18.6508C1.3877 18.5861 1.24582 18.4913 1.1263 18.3718C1.00679 18.2523 0.911983 18.1104 0.847302 17.9543C0.782621 17.7981 0.74933 17.6307 0.74933 17.4617C0.74933 17.2927 0.782621 17.1253 0.847302 16.9692C0.911983 16.813 1.00679 16.6711 1.1263 16.5516L7.93139 9.74912L1.1263 2.9466C1.00659 2.82719 0.911618 2.68534 0.846815 2.52918C0.782013 2.37301 0.748657 2.20559 0.748657 2.03651C0.748657 1.86743 0.782013 1.70001 0.846815 1.54385C0.911618 1.38768 1.00659 1.24583 1.1263 1.12642Z" fill="#61A7A3"/>
</svg>
