<svg width="46" height="42" viewBox="0 0 46 42" fill="none" xmlns="http://www.w3.org/2000/svg">
<path d="M0.947754 0.25V4H27.1348V32.125H18.6502C18.0355 28.9019 15.9047 26.5 13.3521 26.5C10.7996 26.5 8.66879 28.9019 8.05409 32.125H6.46081V22.75H3.70428V35.875H8.05409C8.66879 39.0981 10.7996 41.5 13.3521 41.5C15.9047 41.5 18.0355 39.0981 18.6502 35.875H30.1063C30.721 39.0981 32.8518 41.5 35.4044 41.5C37.9569 41.5 40.0877 39.0981 40.7024 35.875H45.0522V20.5825L44.9654 20.2881L42.2089 9.03813L41.9098 7.75H29.8913V0.25H0.947754ZM2.32602 7.75V11.5H14.7304V7.75H2.32602ZM29.8913 11.5H39.9265L42.2957 21.1094V32.125H40.7024C40.0877 28.9019 37.9569 26.5 35.4044 26.5C32.8518 26.5 30.721 28.9019 30.1063 32.125H29.8913V11.5ZM3.70428 15.25V19H11.9739V15.25H3.70428ZM13.3521 30.25C14.8917 30.25 16.1087 31.9056 16.1087 34C16.1087 36.0944 14.8917 37.75 13.3521 37.75C11.8126 37.75 10.5956 36.0944 10.5956 34C10.5956 31.9056 11.8126 30.25 13.3521 30.25ZM35.4044 30.25C36.9439 30.25 38.1609 31.9056 38.1609 34C38.1609 36.0944 36.9439 37.75 35.4044 37.75C33.8649 37.75 32.6478 36.0944 32.6478 34C32.6478 31.9056 33.8649 30.25 35.4044 30.25Z" fill="#FF8A00"/>
</svg>
